<svg id="Layer_1" data-name="Layer 1" xmlns="http://www.w3.org/2000/svg" xmlns:xlink="http://www.w3.org/1999/xlink" width="504.43" height="226.51" viewBox="0 0 504.43 226.51"><defs><style>.cls-1{fill:none;}.cls-2{clip-path:url(#clip-path);}.cls-3{fill:#0863fd;}.cls-4{fill:#fff;}.cls-5{fill:#0a1481;}</style><clipPath id="clip-path"><path class="cls-1" d="M224.63,145.82a101.68,101.68,0,0,1-96.11,67.78c-56,0-101.6-45-101.6-100.34S72.5,12.92,128.52,12.92a101.73,101.73,0,0,1,95,64.78h-60a51,51,0,0,0-35.12-13.88c-27.92,0-50.56,22.14-50.56,49.44s22.64,49.44,50.56,49.44a50.89,50.89,0,0,0,38-16.88Z"/></clipPath></defs><g class="cls-2"><path class="cls-3" d="M224.63,145.82a101.68,101.68,0,0,1-96.11,67.78c-56,0-101.6-45-101.6-100.34S72.5,12.92,128.52,12.92a101.73,101.73,0,0,1,95,64.78h-60a51,51,0,0,0-35.12-13.88c-27.92,0-50.56,22.14-50.56,49.44s22.64,49.44,50.56,49.44a50.89,50.89,0,0,0,38-16.88Z"/><path class="cls-4" d="M39.4,98.11a3.68,3.68,0,1,1,3.67-3.68A3.67,3.67,0,0,1,39.4,98.11Zm0-5.65a2,2,0,1,0,2,2A2,2,0,0,0,39.4,92.46Z"/><path class="cls-4" d="M32.28,128.38A3.68,3.68,0,1,1,36,124.71,3.68,3.68,0,0,1,32.28,128.38Zm0-5.65a2,2,0,1,0,2,2A2,2,0,0,0,32.28,122.73Z"/><path class="cls-4" d="M41.87,161.07a3.67,3.67,0,1,1,3.67-3.67A3.67,3.67,0,0,1,41.87,161.07Zm0-5.65a2,2,0,1,0,2,2A2,2,0,0,0,41.87,155.42Z"/><path class="cls-4" d="M34,154.19a3.68,3.68,0,1,1,3.67-3.67A3.68,3.68,0,0,1,34,154.19Zm0-5.65a2,2,0,1,0,2,2A2,2,0,0,0,34,148.54Z"/><path class="cls-4" d="M31.28,90.11A3.68,3.68,0,1,1,35,86.43,3.68,3.68,0,0,1,31.28,90.11Zm0-5.65a2,2,0,1,0,2,2A2,2,0,0,0,31.28,84.46Z"/><path class="cls-4" d="M33.75,78.93a3.68,3.68,0,1,1,3.68-3.67A3.68,3.68,0,0,1,33.75,78.93Zm0-5.65a2,2,0,1,0,2,2A2,2,0,0,0,33.75,73.28Z"/><rect class="cls-4" x="134.31" y="9.17" width="1.8" height="25.29"/><rect class="cls-4" x="142.1" y="9.17" width="1.8" height="25.29"/><rect class="cls-4" x="126.93" y="7.46" width="1.8" height="27"/><rect class="cls-4" x="114.72" y="17.39" width="1.8" height="14.93" transform="translate(16.11 88.76) rotate(-44.84)"/><rect class="cls-4" x="154.15" y="25.51" width="27.09" height="1.8"/><rect class="cls-4" x="154.74" y="33.97" width="25.18" height="1.7"/><rect class="cls-4" x="164.83" y="39.72" width="1.7" height="14.85" transform="translate(15.9 132.22) rotate(-45.48)"/><rect class="cls-4" x="191.71" y="34.46" width="1.7" height="12.24"/><rect class="cls-4" x="163.07" y="67.06" width="34.98" height="1.7" transform="translate(4.58 146.92) rotate(-44.79)"/><rect class="cls-4" x="155.06" y="66.2" width="32.09" height="1.7" transform="translate(3.52 142.47) rotate(-45.63)"/><rect class="cls-4" x="168.63" y="68.41" width="38.95" height="1.7" transform="translate(5.55 152.04) rotate(-44.6)"/><rect class="cls-4" x="176.21" y="69.23" width="40.52" height="1.7" transform="translate(9.09 161.74) rotate(-45.7)"/><rect class="cls-4" x="206.95" y="66.29" width="1.7" height="11.94"/><polygon class="cls-4" points="162.76 68.41 161.06 68.41 161.06 59.29 144.2 42.54 145.4 41.33 162.76 58.58 162.76 68.41"/><polygon class="cls-4" points="155.59 76.17 153.89 76.17 153.89 65.93 132.52 44.48 133.72 43.28 155.59 65.23 155.59 76.17"/><rect class="cls-4" x="136.5" y="54.35" width="1.7" height="20.16" transform="translate(-2.82 122.49) rotate(-47.63)"/><rect class="cls-4" x="81.36" y="25.07" width="14.47" height="1.7"/><polygon class="cls-4" points="126.63 68.41 124.93 68.41 124.93 45.12 113.3 33.83 81.66 33.83 81.66 32.13 113.99 32.13 126.63 44.4 126.63 68.41"/><polygon class="cls-4" points="118.91 69.24 117.21 69.24 117.21 45.27 112.46 41.11 81.36 41.11 81.36 39.41 113.1 39.41 118.91 44.51 118.91 69.24"/><rect class="cls-4" x="106.96" y="42.38" width="1.7" height="13.41" transform="translate(-0.93 96.07) rotate(-47.85)"/><polygon class="cls-4" points="69.47 58.24 68.27 57.04 76 49.38 97.72 49.38 97.72 51.08 76.7 51.08 69.47 58.24"/><polygon class="cls-4" points="73.78 66.02 72.6 64.79 81.89 55.85 105.08 55.85 105.08 57.55 82.58 57.55 73.78 66.02"/><rect class="cls-4" x="85.98" y="66.46" width="1.7" height="10.82"/><polygon class="cls-4" points="88.52 88.47 71.82 71.25 52.9 71.25 52.9 58.81 62.69 49.27 63.88 50.48 54.6 59.53 54.6 69.56 72.54 69.56 89.74 87.28 88.52 88.47"/><polygon class="cls-4" points="88.53 97.86 71.09 80.37 49.87 80.37 49.87 78.67 71.8 78.67 89.74 96.66 88.53 97.86"/><polygon class="cls-4" points="73.27 93.46 43.37 93.46 43.37 65.41 45.07 65.41 45.07 91.76 73.27 91.76 73.27 93.46"/><rect class="cls-4" x="34.49" y="84.74" width="1.7" height="11.4" transform="translate(-53.88 52.13) rotate(-45.42)"/><rect class="cls-4" x="27.8" y="99.23" width="49.82" height="1.7"/><rect class="cls-4" x="27.05" y="107.39" width="20" height="1.7"/><polygon class="cls-4" points="45.34 125.94 43.64 125.94 43.64 116.37 26.92 116.37 26.92 114.67 45.34 114.67 45.34 125.94"/><polygon class="cls-4" points="45.08 137.17 43.9 135.95 51.68 128.41 51.68 115.19 59.85 106.36 61.1 107.51 53.38 115.86 53.38 129.13 45.08 137.17"/><rect class="cls-4" x="68.03" y="106.93" width="1.7" height="10.82"/><rect class="cls-4" x="46.2" y="129.87" width="36.77" height="1.7" transform="translate(-73.38 83.56) rotate(-44.84)"/><polygon class="cls-4" points="48.86 155.16 31.74 137.18 31.74 124.71 33.44 124.71 33.44 136.5 50.09 153.99 48.86 155.16"/><polygon class="cls-4" points="63.76 189.81 62.06 189.81 62.06 145.45 71.06 136.25 72.27 137.43 63.76 146.14 63.76 189.81"/><polygon class="cls-4" points="55.91 182.89 54.21 182.89 54.21 176.59 57.42 173.24 57.42 166.02 59.12 166.02 59.12 173.92 55.91 177.28 55.91 182.89"/><rect class="cls-4" x="41.25" y="161.18" width="20.3" height="1.7" transform="translate(-99.68 84.11) rotate(-45.12)"/><rect class="cls-4" x="79.1" y="139.89" width="6.91" height="1.7" transform="translate(-71.34 86.53) rotate(-40.2)"/><rect class="cls-4" x="71.66" y="151.48" width="25.87" height="1.7"/><polygon class="cls-4" points="132.22 172.9 102.83 172.9 93.05 162.81 71.66 162.81 71.66 161.11 93.77 161.11 103.55 171.2 132.22 171.2 132.22 172.9"/><rect class="cls-4" x="101.88" y="161.2" width="11.06" height="1.7"/><rect class="cls-4" x="71.66" y="171.46" width="24.57" height="1.7"/><rect class="cls-4" x="80.06" y="181.2" width="14.65" height="1.7"/><rect class="cls-4" x="103.06" y="181.2" width="30.44" height="1.7"/><polygon class="cls-4" points="110.66 201.96 81 201.96 70.81 191.58 70.81 180.87 72.51 180.87 72.51 190.88 81.71 200.26 110.66 200.26 110.66 201.96"/><rect class="cls-4" x="84.48" y="192.32" width="25.93" height="1.7"/><rect class="cls-4" x="117.28" y="192.91" width="1.7" height="20.3"/><rect class="cls-4" x="124.93" y="192.91" width="1.7" height="20.66"/><rect class="cls-4" x="132.42" y="193.17" width="1.7" height="20.03"/><rect class="cls-4" x="141.83" y="184.87" width="1.7" height="26.53"/><rect class="cls-4" x="156.3" y="193.05" width="1.7" height="17.15" transform="translate(-97.32 177.26) rotate(-46.6)"/><polygon class="cls-4" points="182.71 197.02 164.57 197.02 152.29 184.83 153.48 183.63 165.27 195.32 182.71 195.32 182.71 197.02"/><polygon class="cls-4" points="181.77 188.88 166.88 188.88 161.46 183.33 162.67 182.14 167.59 187.18 181.77 187.18 181.77 188.88"/><polygon class="cls-4" points="143.29 172.64 142.07 171.45 152.03 161.24 152.03 156.51 153.73 156.51 153.73 161.93 143.29 172.64"/><polygon class="cls-4" points="181.96 180.07 166.48 180.07 161.25 174.26 161.25 158.37 162.94 158.37 162.94 173.61 167.23 178.37 180.26 178.37 180.26 174.47 181.96 174.47 181.96 180.07"/><rect class="cls-4" x="174.26" y="156.79" width="1.7" height="10.92" transform="translate(-63.49 169.97) rotate(-44.67)"/><polygon class="cls-4" points="197.17 188.85 186.06 178.12 186.44 160.39 188.13 160.43 187.78 177.41 198.35 187.63 197.17 188.85"/><polygon class="cls-4" points="212.55 164.85 200.57 151.72 186.92 151.72 186.92 150.03 201.32 150.03 213.81 163.71 212.55 164.85"/><rect class="cls-4" x="213.15" y="143.56" width="1.7" height="14.67" transform="translate(-43.1 200.57) rotate(-46.12)"/><polygon class="cls-4" points="197.66 179.54 196.44 178.35 204.35 170.32 211.45 170.32 211.45 172.02 205.06 172.02 197.66 179.54"/><rect class="cls-4" x="72.03" y="28.29" width="1.7" height="9.37"/><circle class="cls-5" cx="160.38" cy="41.93" r="2.82"/><circle class="cls-5" cx="133.12" cy="43.88" r="2.82"/><circle class="cls-5" cx="129.9" cy="57.64" r="2.82"/><circle class="cls-5" cx="112.78" cy="53.58" r="2.82"/><circle class="cls-5" cx="105.08" cy="56.7" r="2.82"/><circle class="cls-5" cx="102.84" cy="66.29" r="2.82"/><circle class="cls-5" cx="86.83" cy="66.46" r="2.82"/><circle class="cls-5" cx="73.19" cy="65.41" r="2.82"/><circle class="cls-5" cx="68.87" cy="57.64" r="2.82"/><circle class="cls-5" cx="49.87" cy="79.52" r="2.82"/><circle class="cls-5" cx="47.05" cy="108.24" r="2.82"/><circle class="cls-5" cx="44.69" cy="125.94" r="2.82"/><circle class="cls-5" cx="44.49" cy="136.56" r="2.82"/><circle class="cls-5" cx="51.55" cy="143.68" r="2.82"/><circle class="cls-5" cx="71.66" cy="136.84" r="2.82"/><circle class="cls-5" cx="79.16" cy="131.19" r="2.82"/><circle class="cls-5" cx="79.91" cy="142.97" r="2.82"/><circle class="cls-5" cx="71.66" cy="152.33" r="2.82"/><circle class="cls-5" cx="58.56" cy="154.84" r="2.82"/><circle class="cls-5" cx="58.27" cy="166.02" r="2.82"/><circle class="cls-5" cx="71.66" cy="161.96" r="2.82"/><circle class="cls-5" cx="71.66" cy="172.31" r="2.82"/><circle class="cls-5" cx="96.24" cy="172.05" r="2.82"/><circle class="cls-5" cx="101.88" cy="162.05" r="2.82"/><circle class="cls-5" cx="112.94" cy="162.05" r="2.82"/><circle class="cls-5" cx="132.09" cy="172.05" r="2.82"/><circle class="cls-5" cx="142.68" cy="172.05" r="2.82"/><circle class="cls-5" cx="162.09" cy="158.37" r="2.82"/><circle class="cls-5" cx="171.54" cy="158.37" r="2.82"/><circle class="cls-5" cx="187.73" cy="160.49" r="2.82"/><circle class="cls-5" cx="178.95" cy="166.13" r="2.82"/><circle class="cls-5" cx="181.11" cy="174.47" r="2.82"/><circle class="cls-5" cx="170.08" cy="147.52" r="2.82"/><circle class="cls-5" cx="177.76" cy="147.52" r="2.82"/><circle class="cls-5" cx="187.29" cy="150.34" r="2.82"/><circle class="cls-5" cx="219.29" cy="155.99" r="2.82"/><circle class="cls-5" cx="213.93" cy="165.58" r="2.82"/><circle class="cls-5" cx="197.05" cy="178.94" r="2.82"/><circle class="cls-5" cx="181.56" cy="188.03" r="2.82"/><circle class="cls-5" cx="162.06" cy="182.74" r="2.82"/><circle class="cls-5" cx="152.27" cy="184.59" r="2.82"/><circle class="cls-5" cx="142.68" cy="184.87" r="2.82"/><circle class="cls-5" cx="142.68" cy="211.4" r="2.82"/><circle class="cls-5" cx="150.62" cy="206.87" r="2.82"/><circle class="cls-5" cx="171.27" cy="204.05" r="2.82"/><circle class="cls-5" cx="150.92" cy="195.73" r="2.82"/><circle class="cls-5" cx="133.27" cy="192.91" r="2.82"/><circle class="cls-5" cx="125.78" cy="192.91" r="2.82"/><circle class="cls-5" cx="118.13" cy="192.91" r="2.82"/><circle class="cls-5" cx="110.66" cy="192.91" r="2.82"/><circle class="cls-5" cx="110.66" cy="201.11" r="2.82"/><circle class="cls-5" cx="105.23" cy="210.77" r="2.82"/><circle class="cls-5" cx="84.48" cy="192.91" r="2.82"/><circle class="cls-5" cx="183.2" cy="196.59" r="2.82"/><circle class="cls-5" cx="80.06" cy="182.05" r="2.82"/><circle class="cls-5" cx="94.71" cy="182.05" r="2.82"/><circle class="cls-5" cx="103.06" cy="182.05" r="2.82"/><circle class="cls-5" cx="133.5" cy="182.05" r="2.82"/><circle class="cls-5" cx="71.66" cy="180.87" r="2.82"/><circle class="cls-5" cx="49.47" cy="154.58" r="2.82"/><circle class="cls-5" cx="43.46" cy="65.41" r="2.82"/><circle class="cls-5" cx="73.27" cy="92.61" r="2.82"/><circle class="cls-5" cx="77.62" cy="100.08" r="2.82"/><circle class="cls-5" cx="60.47" cy="106.93" r="2.82"/><circle class="cls-5" cx="68.88" cy="106.93" r="2.82"/><circle class="cls-5" cx="68.88" cy="117.76" r="2.82"/><circle class="cls-5" cx="63.28" cy="49.88" r="2.82"/><circle class="cls-5" cx="56.58" cy="42.76" r="2.82"/><circle class="cls-5" cx="87.09" cy="77.29" r="2.82"/><circle class="cls-5" cx="97.72" cy="50.23" r="2.82"/><circle class="cls-5" cx="102.84" cy="44.58" r="2.82"/><circle class="cls-5" cx="81.35" cy="40.26" r="2.82"/><circle class="cls-5" cx="81.66" cy="32.98" r="2.82"/><circle class="cls-5" cx="81.35" cy="25.92" r="2.82"/><circle class="cls-5" cx="95.83" cy="25.92" r="2.82"/><circle class="cls-5" cx="110.35" cy="19.57" r="2.82"/><circle class="cls-5" cx="120.88" cy="30.16" r="2.82"/><circle class="cls-5" cx="72.88" cy="37.66" r="2.82"/><circle class="cls-5" cx="170.97" cy="52.35" r="2.82"/><circle class="cls-5" cx="154.74" cy="34.82" r="2.82"/><circle class="cls-5" cx="179.91" cy="34.82" r="2.82"/><circle class="cls-5" cx="154.15" cy="26.17" r="2.82"/><circle class="cls-5" cx="127.83" cy="34.46" r="2.68"/><circle class="cls-5" cx="135.21" cy="34.46" r="2.68"/><circle class="cls-5" cx="143" cy="34.46" r="2.68"/><circle class="cls-5" cx="165.8" cy="20.52" r="2.82"/><circle class="cls-5" cx="180.68" cy="25.85" r="2.82"/><circle class="cls-5" cx="182.33" cy="55.58" r="2.82"/><circle class="cls-5" cx="161.91" cy="68.41" r="2.82"/><circle class="cls-5" cx="144.8" cy="41.93" r="2.82"/><circle class="cls-5" cx="192.97" cy="55.58" r="2.82"/><circle class="cls-5" cx="192.56" cy="46.7" r="2.82"/><circle class="cls-5" cx="201.97" cy="55.58" r="2.82"/><circle class="cls-5" cx="201.97" cy="46.41" r="2.82"/><circle class="cls-5" cx="210.62" cy="55.58" r="2.82"/><circle class="cls-5" cx="207.8" cy="66.29" r="2.82"/><circle class="cls-5" cx="207.8" cy="78.23" r="2.82"/><path class="cls-4" d="M160.38,45.61a3.68,3.68,0,1,1,3.68-3.68A3.68,3.68,0,0,1,160.38,45.61Zm0-5.65a2,2,0,1,0,2,2A2,2,0,0,0,160.38,40Z"/><path class="cls-4" d="M133.12,47.55a3.68,3.68,0,1,1,3.67-3.67A3.67,3.67,0,0,1,133.12,47.55Zm0-5.65a2,2,0,1,0,2,2A2,2,0,0,0,133.12,41.9Z"/><path class="cls-4" d="M129.9,61.31a3.67,3.67,0,1,1,3.67-3.67A3.67,3.67,0,0,1,129.9,61.31Zm0-5.64a2,2,0,1,0,2,2A2,2,0,0,0,129.9,55.67Z"/><path class="cls-4" d="M112.78,57.26a3.68,3.68,0,1,1,3.68-3.68A3.68,3.68,0,0,1,112.78,57.26Zm0-5.65a2,2,0,1,0,2,2A2,2,0,0,0,112.78,51.61Z"/><path class="cls-4" d="M105.08,60.37a3.67,3.67,0,1,1,3.67-3.67A3.68,3.68,0,0,1,105.08,60.37Zm0-5.64a2,2,0,1,0,2,2A2,2,0,0,0,105.08,54.73Z"/><path class="cls-4" d="M102.84,70a3.68,3.68,0,1,1,3.67-3.67A3.67,3.67,0,0,1,102.84,70Zm0-5.65a2,2,0,1,0,2,2A2,2,0,0,0,102.84,64.31Z"/><path class="cls-4" d="M86.83,70.14a3.68,3.68,0,1,1,3.67-3.68A3.68,3.68,0,0,1,86.83,70.14Zm0-5.65a2,2,0,1,0,2,2A2,2,0,0,0,86.83,64.49Z"/><path class="cls-4" d="M73.19,69.08a3.68,3.68,0,1,1,3.68-3.68A3.68,3.68,0,0,1,73.19,69.08Zm0-5.65a2,2,0,1,0,2,2A2,2,0,0,0,73.19,63.43Z"/><path class="cls-4" d="M68.87,61.31a3.67,3.67,0,1,1,3.67-3.67A3.67,3.67,0,0,1,68.87,61.31Zm0-5.64a2,2,0,1,0,2,2A2,2,0,0,0,68.87,55.67Z"/><path class="cls-4" d="M49.87,83.2a3.68,3.68,0,1,1,3.67-3.68A3.67,3.67,0,0,1,49.87,83.2Zm0-5.65a2,2,0,1,0,2,2A2,2,0,0,0,49.87,77.55Z"/><path class="cls-4" d="M47.05,111.91a3.68,3.68,0,1,1,3.67-3.67A3.68,3.68,0,0,1,47.05,111.91Zm0-5.65a2,2,0,1,0,2,2A2,2,0,0,0,47.05,106.26Z"/><path class="cls-4" d="M44.69,129.62a3.68,3.68,0,1,1,3.68-3.68A3.68,3.68,0,0,1,44.69,129.62Zm0-5.65a2,2,0,1,0,2,2A2,2,0,0,0,44.69,124Z"/><path class="cls-4" d="M44.49,140.23a3.67,3.67,0,1,1,3.67-3.67A3.67,3.67,0,0,1,44.49,140.23Zm0-5.64a2,2,0,1,0,2,2A2,2,0,0,0,44.49,134.59Z"/><path class="cls-4" d="M51.55,147.35a3.67,3.67,0,1,1,3.67-3.67A3.68,3.68,0,0,1,51.55,147.35Zm0-5.65a2,2,0,1,0,2,2A2,2,0,0,0,51.55,141.7Z"/><path class="cls-4" d="M71.66,140.51a3.67,3.67,0,1,1,3.68-3.67A3.67,3.67,0,0,1,71.66,140.51Zm0-5.64a2,2,0,1,0,2,2A2,2,0,0,0,71.66,134.87Z"/><path class="cls-4" d="M79.16,134.87a3.68,3.68,0,1,1,3.68-3.68A3.68,3.68,0,0,1,79.16,134.87Zm0-5.65a2,2,0,1,0,2,2A2,2,0,0,0,79.16,129.22Z"/><path class="cls-4" d="M79.91,146.65A3.68,3.68,0,1,1,83.59,143,3.68,3.68,0,0,1,79.91,146.65Zm0-5.65a2,2,0,1,0,2,2A2,2,0,0,0,79.91,141Z"/><path class="cls-4" d="M71.66,156a3.68,3.68,0,1,1,3.68-3.68A3.68,3.68,0,0,1,71.66,156Zm0-5.65a2,2,0,1,0,2,2A2,2,0,0,0,71.66,150.35Z"/><path class="cls-4" d="M58.56,158.51a3.67,3.67,0,1,1,3.67-3.67A3.67,3.67,0,0,1,58.56,158.51Zm0-5.64a2,2,0,1,0,2,2A2,2,0,0,0,58.56,152.87Z"/><path class="cls-4" d="M58.27,169.69A3.68,3.68,0,1,1,61.94,166,3.68,3.68,0,0,1,58.27,169.69Zm0-5.65a2,2,0,1,0,2,2A2,2,0,0,0,58.27,164Z"/><path class="cls-4" d="M71.66,165.63A3.68,3.68,0,1,1,75.34,162,3.68,3.68,0,0,1,71.66,165.63Zm0-5.65a2,2,0,1,0,2,2A2,2,0,0,0,71.66,160Z"/><path class="cls-4" d="M71.66,176a3.67,3.67,0,1,1,3.68-3.67A3.67,3.67,0,0,1,71.66,176Zm0-5.64a2,2,0,1,0,2,2A2,2,0,0,0,71.66,170.34Z"/><path class="cls-4" d="M96.24,175.72a3.68,3.68,0,1,1,3.67-3.67A3.68,3.68,0,0,1,96.24,175.72Zm0-5.65a2,2,0,1,0,2,2A2,2,0,0,0,96.24,170.07Z"/><path class="cls-4" d="M101.88,165.72a3.68,3.68,0,1,1,3.68-3.67A3.68,3.68,0,0,1,101.88,165.72Zm0-5.65a2,2,0,1,0,2,2A2,2,0,0,0,101.88,160.07Z"/><path class="cls-4" d="M112.94,165.72a3.68,3.68,0,1,1,3.68-3.67A3.68,3.68,0,0,1,112.94,165.72Zm0-5.65a2,2,0,1,0,2,2A2,2,0,0,0,112.94,160.07Z"/><path class="cls-4" d="M132.09,175.72a3.68,3.68,0,1,1,3.68-3.67A3.68,3.68,0,0,1,132.09,175.72Zm0-5.65a2,2,0,1,0,2,2A2,2,0,0,0,132.09,170.07Z"/><path class="cls-4" d="M142.68,175.72a3.68,3.68,0,1,1,3.68-3.67A3.68,3.68,0,0,1,142.68,175.72Zm0-5.65a2,2,0,1,0,2,2A2,2,0,0,0,142.68,170.07Z"/><path class="cls-4" d="M162.09,162a3.67,3.67,0,1,1,3.68-3.67A3.67,3.67,0,0,1,162.09,162Zm0-5.64a2,2,0,1,0,2,2A2,2,0,0,0,162.09,156.4Z"/><path class="cls-4" d="M171.54,162a3.67,3.67,0,1,1,3.67-3.67A3.67,3.67,0,0,1,171.54,162Zm0-5.64a2,2,0,1,0,2,2A2,2,0,0,0,171.54,156.4Z"/><path class="cls-4" d="M187.73,164.16a3.68,3.68,0,1,1,3.67-3.67A3.68,3.68,0,0,1,187.73,164.16Zm0-5.65a2,2,0,1,0,2,2A2,2,0,0,0,187.73,158.51Z"/><path class="cls-4" d="M179,169.81a3.68,3.68,0,1,1,3.67-3.68A3.68,3.68,0,0,1,179,169.81Zm0-5.65a2,2,0,1,0,2,2A2,2,0,0,0,179,164.16Z"/><path class="cls-4" d="M181.11,178.15a3.68,3.68,0,1,1,3.67-3.68A3.67,3.67,0,0,1,181.11,178.15Zm0-5.65a2,2,0,1,0,2,2A2,2,0,0,0,181.11,172.5Z"/><path class="cls-4" d="M170.08,151.19a3.68,3.68,0,1,1,3.67-3.67A3.67,3.67,0,0,1,170.08,151.19Zm0-5.65a2,2,0,1,0,2,2A2,2,0,0,0,170.08,145.54Z"/><path class="cls-4" d="M177.76,151.19a3.68,3.68,0,1,1,3.67-3.67A3.68,3.68,0,0,1,177.76,151.19Zm0-5.65a2,2,0,1,0,2,2A2,2,0,0,0,177.76,145.54Z"/><path class="cls-4" d="M187.29,154a3.67,3.67,0,1,1,3.67-3.67A3.67,3.67,0,0,1,187.29,154Zm0-5.64a2,2,0,1,0,2,2A2,2,0,0,0,187.29,148.37Z"/><path class="cls-4" d="M219.29,159.66A3.68,3.68,0,1,1,223,156,3.68,3.68,0,0,1,219.29,159.66Zm0-5.65a2,2,0,1,0,2,2A2,2,0,0,0,219.29,154Z"/><path class="cls-4" d="M213.93,169.25a3.68,3.68,0,1,1,3.68-3.68A3.68,3.68,0,0,1,213.93,169.25Zm0-5.65a2,2,0,1,0,2,2A2,2,0,0,0,213.93,163.6Z"/><path class="cls-4" d="M197.05,182.62a3.68,3.68,0,1,1,3.67-3.68A3.67,3.67,0,0,1,197.05,182.62Zm0-5.65a2,2,0,1,0,2,2A2,2,0,0,0,197.05,177Z"/><path class="cls-4" d="M181.56,191.7a3.67,3.67,0,1,1,3.68-3.67A3.67,3.67,0,0,1,181.56,191.7Zm0-5.64a2,2,0,1,0,2,2A2,2,0,0,0,181.56,186.06Z"/><path class="cls-4" d="M162.06,186.41a3.68,3.68,0,1,1,3.68-3.67A3.68,3.68,0,0,1,162.06,186.41Zm0-5.65a2,2,0,1,0,2,2A2,2,0,0,0,162.06,180.76Z"/><path class="cls-4" d="M152.27,188.26a3.67,3.67,0,1,1,3.67-3.67A3.67,3.67,0,0,1,152.27,188.26Zm0-5.64a2,2,0,1,0,2,2A2,2,0,0,0,152.27,182.62Z"/><path class="cls-4" d="M142.68,188.54a3.67,3.67,0,1,1,3.68-3.67A3.67,3.67,0,0,1,142.68,188.54Zm0-5.64a2,2,0,1,0,2,2A2,2,0,0,0,142.68,182.9Z"/><path class="cls-4" d="M142.68,215.07a3.67,3.67,0,1,1,3.68-3.67A3.68,3.68,0,0,1,142.68,215.07Zm0-5.65a2,2,0,1,0,2,2A2,2,0,0,0,142.68,209.42Z"/><path class="cls-4" d="M150.62,210.54a3.67,3.67,0,1,1,3.68-3.67A3.67,3.67,0,0,1,150.62,210.54Zm0-5.64a2,2,0,1,0,2,2A2,2,0,0,0,150.62,204.9Z"/><path class="cls-4" d="M171.27,207.72a3.68,3.68,0,1,1,3.67-3.67A3.67,3.67,0,0,1,171.27,207.72Zm0-5.65a2,2,0,1,0,2,2A2,2,0,0,0,171.27,202.07Z"/><path class="cls-4" d="M150.92,199.4a3.67,3.67,0,1,1,3.67-3.67A3.67,3.67,0,0,1,150.92,199.4Zm0-5.64a2,2,0,1,0,2,2A2,2,0,0,0,150.92,193.76Z"/><path class="cls-4" d="M133.27,196.58a3.68,3.68,0,1,1,3.67-3.67A3.67,3.67,0,0,1,133.27,196.58Zm0-5.65a2,2,0,1,0,2,2A2,2,0,0,0,133.27,190.93Z"/><path class="cls-4" d="M125.78,196.58a3.68,3.68,0,1,1,3.67-3.67A3.67,3.67,0,0,1,125.78,196.58Zm0-5.65a2,2,0,1,0,2,2A2,2,0,0,0,125.78,190.93Z"/><path class="cls-4" d="M118.13,196.58a3.68,3.68,0,1,1,3.68-3.67A3.68,3.68,0,0,1,118.13,196.58Zm0-5.65a2,2,0,1,0,2,2A2,2,0,0,0,118.13,190.93Z"/><path class="cls-4" d="M110.66,196.58a3.68,3.68,0,1,1,3.67-3.67A3.68,3.68,0,0,1,110.66,196.58Zm0-5.65a2,2,0,1,0,2,2A2,2,0,0,0,110.66,190.93Z"/><path class="cls-4" d="M110.66,204.78a3.67,3.67,0,1,1,3.67-3.67A3.67,3.67,0,0,1,110.66,204.78Zm0-5.64a2,2,0,1,0,2,2A2,2,0,0,0,110.66,199.14Z"/><path class="cls-4" d="M105.23,214.45a3.68,3.68,0,1,1,3.68-3.68A3.68,3.68,0,0,1,105.23,214.45Zm0-5.65a2,2,0,1,0,2,2A2,2,0,0,0,105.23,208.8Z"/><path class="cls-4" d="M84.48,196.58a3.68,3.68,0,1,1,3.68-3.67A3.68,3.68,0,0,1,84.48,196.58Zm0-5.65a2,2,0,1,0,2,2A2,2,0,0,0,84.48,190.93Z"/><path class="cls-4" d="M183.2,200.26a3.67,3.67,0,1,1,3.67-3.67A3.67,3.67,0,0,1,183.2,200.26Zm0-5.64a2,2,0,1,0,2,2A2,2,0,0,0,183.2,194.62Z"/><path class="cls-4" d="M80.06,185.72a3.68,3.68,0,1,1,3.67-3.67A3.68,3.68,0,0,1,80.06,185.72Zm0-5.65a2,2,0,1,0,2,2A2,2,0,0,0,80.06,180.07Z"/><path class="cls-4" d="M94.71,185.72a3.68,3.68,0,1,1,3.67-3.67A3.68,3.68,0,0,1,94.71,185.72Zm0-5.65a2,2,0,1,0,2,2A2,2,0,0,0,94.71,180.07Z"/><path class="cls-4" d="M103.06,185.72a3.68,3.68,0,1,1,3.67-3.67A3.68,3.68,0,0,1,103.06,185.72Zm0-5.65a2,2,0,1,0,2,2A2,2,0,0,0,103.06,180.07Z"/><path class="cls-4" d="M133.5,185.72a3.68,3.68,0,1,1,3.68-3.67A3.68,3.68,0,0,1,133.5,185.72Zm0-5.65a2,2,0,1,0,2,2A2,2,0,0,0,133.5,180.07Z"/><path class="cls-4" d="M71.66,184.54a3.67,3.67,0,1,1,3.68-3.67A3.67,3.67,0,0,1,71.66,184.54Zm0-5.64a2,2,0,1,0,2,2A2,2,0,0,0,71.66,178.9Z"/><path class="cls-4" d="M49.47,158.25a3.68,3.68,0,1,1,3.68-3.68A3.68,3.68,0,0,1,49.47,158.25Zm0-5.65a2,2,0,1,0,2,2A2,2,0,0,0,49.47,152.6Z"/><path class="cls-4" d="M43.46,69.08a3.68,3.68,0,1,1,3.67-3.68A3.68,3.68,0,0,1,43.46,69.08Zm0-5.65a2,2,0,1,0,2,2A2,2,0,0,0,43.46,63.43Z"/><path class="cls-4" d="M73.27,96.28a3.67,3.67,0,1,1,3.67-3.67A3.67,3.67,0,0,1,73.27,96.28Zm0-5.64a2,2,0,1,0,2,2A2,2,0,0,0,73.27,90.64Z"/><path class="cls-4" d="M77.62,103.76a3.68,3.68,0,1,1,3.67-3.68A3.67,3.67,0,0,1,77.62,103.76Zm0-5.65a2,2,0,1,0,2,2A2,2,0,0,0,77.62,98.11Z"/><path class="cls-4" d="M60.47,110.61a3.68,3.68,0,1,1,3.68-3.68A3.68,3.68,0,0,1,60.47,110.61Zm0-5.65a2,2,0,1,0,2,2A2,2,0,0,0,60.47,105Z"/><path class="cls-4" d="M68.88,110.61a3.68,3.68,0,1,1,3.68-3.68A3.68,3.68,0,0,1,68.88,110.61Zm0-5.65a2,2,0,1,0,2,2A2,2,0,0,0,68.88,105Z"/><path class="cls-4" d="M68.88,121.43a3.68,3.68,0,1,1,3.68-3.67A3.68,3.68,0,0,1,68.88,121.43Zm0-5.65a2,2,0,1,0,2,2A2,2,0,0,0,68.88,115.78Z"/><path class="cls-4" d="M63.28,53.55A3.68,3.68,0,1,1,67,49.88,3.68,3.68,0,0,1,63.28,53.55Zm0-5.65a2,2,0,1,0,2,2A2,2,0,0,0,63.28,47.9Z"/><path class="cls-4" d="M56.58,46.43a3.68,3.68,0,1,1,3.67-3.67A3.68,3.68,0,0,1,56.58,46.43Zm0-5.65a2,2,0,1,0,2,2A2,2,0,0,0,56.58,40.78Z"/><path class="cls-4" d="M87.09,81a3.68,3.68,0,1,1,3.67-3.67A3.67,3.67,0,0,1,87.09,81Zm0-5.65a2,2,0,1,0,2,2A2,2,0,0,0,87.09,75.31Z"/><path class="cls-4" d="M97.72,53.9a3.68,3.68,0,1,1,3.68-3.67A3.68,3.68,0,0,1,97.72,53.9Zm0-5.64a2,2,0,1,0,2,2A2,2,0,0,0,97.72,48.26Z"/><path class="cls-4" d="M102.84,48.26a3.68,3.68,0,1,1,3.67-3.68A3.67,3.67,0,0,1,102.84,48.26Zm0-5.65a2,2,0,1,0,2,2A2,2,0,0,0,102.84,42.61Z"/><path class="cls-4" d="M81.36,43.93A3.68,3.68,0,1,1,85,40.26,3.68,3.68,0,0,1,81.36,43.93Zm0-5.65a2,2,0,1,0,2,2A2,2,0,0,0,81.36,38.28Z"/><path class="cls-4" d="M81.66,36.65A3.68,3.68,0,1,1,85.34,33,3.68,3.68,0,0,1,81.66,36.65Zm0-5.64a2,2,0,1,0,2,2A2,2,0,0,0,81.66,31Z"/><path class="cls-4" d="M81.36,29.59A3.67,3.67,0,1,1,85,25.92,3.67,3.67,0,0,1,81.36,29.59Zm0-5.64a2,2,0,1,0,2,2A2,2,0,0,0,81.36,24Z"/><path class="cls-4" d="M95.83,29.59a3.67,3.67,0,1,1,3.67-3.67A3.67,3.67,0,0,1,95.83,29.59Zm0-5.64a2,2,0,1,0,2,2A2,2,0,0,0,95.83,24Z"/><path class="cls-4" d="M110.36,23.24A3.68,3.68,0,1,1,114,19.57,3.68,3.68,0,0,1,110.36,23.24Zm0-5.65a2,2,0,1,0,2,2A2,2,0,0,0,110.36,17.59Z"/><path class="cls-4" d="M120.88,33.83a3.68,3.68,0,1,1,3.68-3.68A3.68,3.68,0,0,1,120.88,33.83Zm0-5.65a2,2,0,1,0,2,2A2,2,0,0,0,120.88,28.18Z"/><path class="cls-4" d="M72.88,41.33a3.68,3.68,0,1,1,3.68-3.68A3.68,3.68,0,0,1,72.88,41.33Zm0-5.65a2,2,0,1,0,2,2A2,2,0,0,0,72.88,35.68Z"/><path class="cls-4" d="M171,56a3.68,3.68,0,1,1,3.68-3.67A3.68,3.68,0,0,1,171,56Zm0-5.65a2,2,0,1,0,2,2A2,2,0,0,0,171,50.37Z"/><path class="cls-4" d="M154.74,38.49a3.68,3.68,0,1,1,3.67-3.67A3.68,3.68,0,0,1,154.74,38.49Zm0-5.65a2,2,0,1,0,2,2A2,2,0,0,0,154.74,32.84Z"/><path class="cls-4" d="M179.91,38.49a3.68,3.68,0,1,1,3.68-3.67A3.68,3.68,0,0,1,179.91,38.49Zm0-5.65a2,2,0,1,0,2,2A2,2,0,0,0,179.91,32.84Z"/><path class="cls-4" d="M154.15,29.84a3.67,3.67,0,1,1,3.67-3.67A3.67,3.67,0,0,1,154.15,29.84Zm0-5.64a2,2,0,1,0,2,2A2,2,0,0,0,154.15,24.2Z"/><path class="cls-4" d="M127.83,38a3.53,3.53,0,1,1,3.52-3.53A3.53,3.53,0,0,1,127.83,38Zm0-5.35a1.83,1.83,0,1,0,1.82,1.82A1.83,1.83,0,0,0,127.83,32.64Z"/><path class="cls-4" d="M135.21,38a3.53,3.53,0,1,1,3.52-3.53A3.53,3.53,0,0,1,135.21,38Zm0-5.35A1.83,1.83,0,1,0,137,34.46,1.83,1.83,0,0,0,135.21,32.64Z"/><path class="cls-4" d="M143,38a3.53,3.53,0,1,1,3.53-3.53A3.53,3.53,0,0,1,143,38Zm0-5.35a1.83,1.83,0,1,0,1.83,1.82A1.82,1.82,0,0,0,143,32.64Z"/><path class="cls-4" d="M165.8,24.2a3.68,3.68,0,1,1,3.67-3.68A3.68,3.68,0,0,1,165.8,24.2Zm0-5.65a2,2,0,1,0,2,2A2,2,0,0,0,165.8,18.55Z"/><path class="cls-4" d="M180.68,29.52a3.68,3.68,0,1,1,3.67-3.67A3.67,3.67,0,0,1,180.68,29.52Zm0-5.65a2,2,0,1,0,2,2A2,2,0,0,0,180.68,23.87Z"/><path class="cls-4" d="M182.33,59.26A3.68,3.68,0,1,1,186,55.58,3.68,3.68,0,0,1,182.33,59.26Zm0-5.65a2,2,0,1,0,2,2A2,2,0,0,0,182.33,53.61Z"/><path class="cls-4" d="M161.91,72.08a3.68,3.68,0,1,1,3.68-3.68A3.68,3.68,0,0,1,161.91,72.08Zm0-5.65a2,2,0,1,0,2,2A2,2,0,0,0,161.91,66.43Z"/><path class="cls-4" d="M144.8,45.61a3.68,3.68,0,1,1,3.67-3.68A3.68,3.68,0,0,1,144.8,45.61Zm0-5.65a2,2,0,1,0,2,2A2,2,0,0,0,144.8,40Z"/><path class="cls-4" d="M193,59.26a3.68,3.68,0,1,1,3.68-3.68A3.68,3.68,0,0,1,193,59.26Zm0-5.65a2,2,0,1,0,2,2A2,2,0,0,0,193,53.61Z"/><path class="cls-4" d="M192.56,50.37a3.64,3.64,0,0,1-2.42-.91,3.68,3.68,0,0,1-.34-5.18,3.68,3.68,0,0,1,6.43,2.18h0a3.66,3.66,0,0,1-.91,2.66,3.6,3.6,0,0,1-2.52,1.24Zm0-5.64h-.13a1.9,1.9,0,0,0-1.35.67,2,2,0,0,0-.49,1.43,2,2,0,0,0,2.1,1.84,2,2,0,0,0,1.36-.67,2,2,0,0,0,.48-1.43h0a1.9,1.9,0,0,0-.67-1.35A2,2,0,0,0,192.56,44.73Z"/><path class="cls-4" d="M202,59.26a3.67,3.67,0,0,1-.24-7.34,3.7,3.7,0,0,1,3.91,3.42,3.7,3.7,0,0,1-3.43,3.91Zm0-5.65h-.13a2,2,0,0,0-1.17,3.46,2,2,0,0,0,1.43.48,2,2,0,0,0,1.84-2.1A2,2,0,0,0,202,53.61Z"/><path class="cls-4" d="M202,50.08a3.67,3.67,0,1,1,3.67-3.92h0a3.68,3.68,0,0,1-.91,2.67,3.64,3.64,0,0,1-2.52,1.24Zm0-5.65h-.13a2,2,0,1,0,2.1,1.84h0A2,2,0,0,0,202,44.43Z"/><path class="cls-4" d="M210.62,59.26a3.67,3.67,0,0,1-2.76-6.1,3.68,3.68,0,0,1,5.18-.34,3.67,3.67,0,0,1-2.18,6.43Zm0-5.65h-.13a1.94,1.94,0,0,0-1.35.67,2,2,0,0,0-.49,1.43,2,2,0,1,0,2-2.1Z"/><path class="cls-4" d="M207.79,70a3.67,3.67,0,1,1,3.67-3.91h0A3.66,3.66,0,0,1,208,70Zm0-5.65h-.13a2,2,0,1,0,2.1,1.84h0A2,2,0,0,0,207.8,64.31Z"/><path class="cls-4" d="M207.79,81.9a3.7,3.7,0,1,1,.25,0Zm0-5.64h-.13a2,2,0,1,0,.13,0Z"/></g><path d="M128.52,215.1c-56.85,0-103.1-45.69-103.1-101.84S71.67,11.42,128.52,11.42c42.53,0,81.28,26.42,96.41,65.74l.79,2H162.91l-.44-.41a49.33,49.33,0,0,0-34.09-13.47c-27,0-49.06,21.5-49.06,47.94s22,47.94,49.06,47.94a49.56,49.56,0,0,0,36.93-16.38l.44-.5h61l-.69,2C211.72,187.45,172.53,215.1,128.52,215.1Zm0-200.68c-55.19,0-100.1,44.34-100.1,98.84s44.91,98.84,100.1,98.84c42,0,79.51-25.95,94-64.78H167.09a52.58,52.58,0,0,1-38.71,16.88c-28.7,0-52.06-22.86-52.06-50.94s23.36-50.94,52.06-50.94A52.36,52.36,0,0,1,164.1,76.2h57.22C206.09,39.15,169.08,14.42,128.52,14.42Z"/><path d="M212,138.79V107.05h-.31l-4,10.14L202.51,129h-6.32l-5.3-12.24L187,107l-.31.08v31.74h-8.89V84.5h8.5l7.64,17.79,5.31,13.1h.31l5.22-13.18,7.49-17.71h8.58v54.29Z"/><path d="M263,101.27a20.82,20.82,0,0,1-1,6.56,15.31,15.31,0,0,1-3,5.3,13.6,13.6,0,0,1-5,3.55,18,18,0,0,1-7.09,1.29h-8v20.82H230V84.5h16.38a21.55,21.55,0,0,1,6.86,1,13.79,13.79,0,0,1,5.23,3.08,13.63,13.63,0,0,1,3.35,5.22A21.46,21.46,0,0,1,263,101.27Zm-8.81-.19a8.84,8.84,0,0,0-2-6.17q-1.95-2.14-5.93-2.14h-7.41v16.77h7.49q4,0,5.89-2.29A9.35,9.35,0,0,0,254.15,101.08Z"/><path d="M301.65,84.5v37.83a19.51,19.51,0,0,1-1.21,7.06,14.88,14.88,0,0,1-3.43,5.35,15.27,15.27,0,0,1-5.27,3.35,20.15,20.15,0,0,1-14.07-.2,14.42,14.42,0,0,1-5.23-3.7,15.6,15.6,0,0,1-3.12-5.5,21.26,21.26,0,0,1-1.05-6.75V84.5h8.89v37.68a9.29,9.29,0,0,0,2,6,7,7,0,0,0,5.89,2.5,7.32,7.32,0,0,0,5.42-2.15,7.82,7.82,0,0,0,2.14-5.81V84.5Z"/><path d="M326.76,92.62v46.17h-8.89V92.62H305.94V84.5h32.84v8.12Z"/><path d="M344,138.79V84.5h30.19v8.27h-21.3v14.51h18.33v8.11H352.89v15h21.3v8.42Z"/><path d="M404.69,138.79l-8.12-22.62h-6.94v22.62h-8.89V84.5h17.47a19.34,19.34,0,0,1,6.24,1,13.31,13.31,0,0,1,5,2.92,13.57,13.57,0,0,1,3.23,4.88,18.27,18.27,0,0,1,1.17,6.82,17.42,17.42,0,0,1-2.18,8.9,14,14,0,0,1-6.48,5.69l9.29,24.1Zm.39-38.69c0-2.54-.65-4.43-1.95-5.65a7.92,7.92,0,0,0-5.62-1.83h-7.88v15.52h7.8a7.64,7.64,0,0,0,5.58-2Q405.08,104.09,405.08,100.1Z"/><path d="M269.81,180.52a9.43,9.43,0,0,1-2.81,7.22q-2.79,2.63-7.92,2.63a12.89,12.89,0,0,1-6.71-1.6,11.81,11.81,0,0,1-4.16-4.15l4.55-3.28a9.26,9.26,0,0,0,2.65,2.77,6.55,6.55,0,0,0,3.77,1c1.77,0,3-.42,3.74-1.28A4.7,4.7,0,0,0,264,180.7a4.19,4.19,0,0,0-.44-2,4.31,4.31,0,0,0-1.2-1.43,7.68,7.68,0,0,0-1.89-1c-.74-.29-1.54-.56-2.41-.82a27.78,27.78,0,0,1-4.11-1.65,10.34,10.34,0,0,1-2.77-2,6.71,6.71,0,0,1-1.57-2.62,10.52,10.52,0,0,1-.49-3.36,9.93,9.93,0,0,1,.73-3.85,8.65,8.65,0,0,1,2.07-3,9.45,9.45,0,0,1,3.22-2,11.92,11.92,0,0,1,4.17-.7,12.85,12.85,0,0,1,6.11,1.26,9.92,9.92,0,0,1,3.75,3.43l-4.2,3.52a7.34,7.34,0,0,0-2.52-2.27,7,7,0,0,0-3.23-.72,4.48,4.48,0,0,0-3.34,1.18,4.08,4.08,0,0,0-1.15,3,2.89,2.89,0,0,0,.53,1.76,4.8,4.8,0,0,0,1.45,1.33,10.69,10.69,0,0,0,2.17,1c.84.31,1.72.6,2.66.89a18,18,0,0,1,3.93,1.67,9.56,9.56,0,0,1,2.54,2.15,7.47,7.47,0,0,1,1.37,2.71A12.45,12.45,0,0,1,269.81,180.52Z"/><path d="M295.45,161.49v28.59H290V161.49h-7.39v-5h20.33v5Z"/><path d="M337,179.89a12,12,0,0,1-.75,4.35,9.39,9.39,0,0,1-2.13,3.3,9.22,9.22,0,0,1-3.26,2.11,12.68,12.68,0,0,1-8.88-.17,8.7,8.7,0,0,1-3.22-2.42,10,10,0,0,1-1.81-3.52,15.43,15.43,0,0,1-.58-4.23v-12.7A12.57,12.57,0,0,1,317,163a9.61,9.61,0,0,1,1.79-3.33,9.42,9.42,0,0,1,3.18-2.46,12.16,12.16,0,0,1,9.4-.05,9.64,9.64,0,0,1,3.21,2.39,9.48,9.48,0,0,1,1.88,3.33,11.87,11.87,0,0,1,.61,3.75Zm-5.6-13.37a6.39,6.39,0,0,0-.22-1.48,5.39,5.39,0,0,0-.75-1.62,4.71,4.71,0,0,0-1.43-1.33,4.27,4.27,0,0,0-2.29-.56,4.88,4.88,0,0,0-2.34.51,4.46,4.46,0,0,0-1.5,1.26,4.91,4.91,0,0,0-.8,1.62,6.21,6.21,0,0,0-.24,1.65l.05,12.87a7.11,7.11,0,0,0,1.11,4.07,4.21,4.21,0,0,0,3.77,1.64,4.61,4.61,0,0,0,3.26-1.28,4.54,4.54,0,0,0,1.38-3.51Z"/><path d="M368.19,190.08l-5-14h-4.3v14h-5.51V156.46h10.82a11.81,11.81,0,0,1,3.87.61,8.06,8.06,0,0,1,5.07,4.83,11.33,11.33,0,0,1,.72,4.22,10.77,10.77,0,0,1-1.35,5.51,8.61,8.61,0,0,1-4,3.52l5.75,14.93Zm.24-24a4.62,4.62,0,0,0-1.2-3.5,4.89,4.89,0,0,0-3.48-1.13h-4.88v9.61h4.83a4.69,4.69,0,0,0,3.45-1.26A5,5,0,0,0,368.43,166.12Z"/><path d="M390,190.08V156.46h18.69v5.12H395.48v9h11.35v5H395.48v9.27h13.19v5.22Z"/><path d="M451.33,190.08c-1.22-2.51-2.44-5-3.64-7.51s-2.43-5-3.65-7.51c-.64,1-1.29,1.94-1.93,2.92s-1.29,1.94-1.93,2.87v9.23h-5.51V156.46h5.51v15.22h.14l9.85-15.22h6.33l-9,13.43q2.46,5.12,5,10.12t5,10.07Z"/><path d="M479,180.52a9.42,9.42,0,0,1-2.8,7.22q-2.81,2.63-7.92,2.63a12.91,12.91,0,0,1-6.72-1.6,11.78,11.78,0,0,1-4.15-4.15l4.54-3.28a9.17,9.17,0,0,0,2.66,2.77,6.52,6.52,0,0,0,3.76,1c1.77,0,3-.42,3.75-1.28a4.74,4.74,0,0,0,1.08-3.17,4.19,4.19,0,0,0-.43-2,4.34,4.34,0,0,0-1.21-1.43,7.43,7.43,0,0,0-1.88-1c-.74-.29-1.55-.56-2.42-.82a27.19,27.19,0,0,1-4.1-1.65,10.4,10.4,0,0,1-2.78-2,6.83,6.83,0,0,1-1.57-2.62,10.81,10.81,0,0,1-.48-3.36,10.11,10.11,0,0,1,.72-3.85,8.68,8.68,0,0,1,2.08-3,9.4,9.4,0,0,1,3.21-2,11.93,11.93,0,0,1,4.18-.7,12.87,12.87,0,0,1,6.11,1.26,9.89,9.89,0,0,1,3.74,3.43l-4.2,3.52a7.31,7.31,0,0,0-2.51-2.27,7,7,0,0,0-3.24-.72,4.44,4.44,0,0,0-3.33,1.18,4.09,4.09,0,0,0-1.16,3,3,3,0,0,0,.53,1.76,5.05,5.05,0,0,0,1.45,1.33,11,11,0,0,0,2.17,1c.84.31,1.73.6,2.66.89a18.14,18.14,0,0,1,3.94,1.67,9.51,9.51,0,0,1,2.53,2.15,7.34,7.34,0,0,1,1.38,2.71A12.88,12.88,0,0,1,479,180.52Z"/><path d="M128.79,150.29a37.86,37.86,0,1,1,37.85-37.86A37.9,37.9,0,0,1,128.79,150.29Zm0-57.81a20,20,0,1,0,20,20A19.95,19.95,0,0,0,128.79,92.48Z"/></svg>