<svg xmlns="http://www.w3.org/2000/svg" xmlns:xlink="http://www.w3.org/1999/xlink" width="1000" zoomAndPan="magnify" viewBox="0 0 750 749.999995" height="1000" preserveAspectRatio="xMidYMid meet" version="1.0"><defs><clipPath id="776c18a68e"><path d="M 262.5 262.5 L 487.5 262.5 L 487.5 487.5 L 262.5 487.5 Z M 262.5 262.5 " clip-rule="nonzero"/></clipPath><clipPath id="42fb370f5d"><path d="M 375 262.5 C 312.867188 262.5 262.5 312.867188 262.5 375 C 262.5 437.132812 312.867188 487.5 375 487.5 C 437.132812 487.5 487.5 437.132812 487.5 375 C 487.5 312.867188 437.132812 262.5 375 262.5 Z M 375 262.5 " clip-rule="nonzero"/></clipPath><clipPath id="178cc541fe"><path d="M 0.5 0.5 L 225.5 0.5 L 225.5 225.5 L 0.5 225.5 Z M 0.5 0.5 " clip-rule="nonzero"/></clipPath><clipPath id="17df639d30"><path d="M 113 0.5 C 50.867188 0.5 0.5 50.867188 0.5 113 C 0.5 175.132812 50.867188 225.5 113 225.5 C 175.132812 225.5 225.5 175.132812 225.5 113 C 225.5 50.867188 175.132812 0.5 113 0.5 Z M 113 0.5 " clip-rule="nonzero"/></clipPath><clipPath id="8a89678b33"><rect x="0" width="226" y="0" height="226"/></clipPath></defs><path fill="#ff9800" d="M 401.335938 198.523438 C 392.753906 197.261719 383.789062 196.632812 374.828125 196.632812 C 365.742188 196.632812 356.910156 197.261719 348.199219 198.523438 L 374.578125 -0.015625 L 374.957031 -0.015625 L 401.335938 198.523438 " fill-opacity="1" fill-rule="nonzero"/><path fill="#ff9800" d="M 401.335938 551.425781 L 374.957031 749.964844 L 374.578125 749.964844 L 348.199219 551.425781 C 356.910156 552.6875 365.742188 553.316406 374.828125 553.316406 C 383.789062 553.316406 392.753906 552.6875 401.335938 551.425781 " fill-opacity="1" fill-rule="nonzero"/><path fill="#ff9800" d="M 749.824219 374.851562 L 749.824219 375.101562 L 551.277344 401.480469 C 552.546875 392.894531 553.175781 383.933594 553.175781 374.972656 C 553.175781 366.011719 552.546875 357.054688 551.277344 348.46875 L 749.824219 374.851562 " fill-opacity="1" fill-rule="nonzero"/><path fill="#ff9800" d="M 196.359375 374.972656 C 196.359375 383.933594 196.992188 392.894531 198.253906 401.480469 L -0.289062 375.101562 L -0.289062 374.851562 L 198.253906 348.46875 C 196.992188 357.054688 196.359375 366.011719 196.359375 374.972656 " fill-opacity="1" fill-rule="nonzero"/><path fill="#ff9800" d="M 640.011719 109.917969 L 518.339844 268.953125 C 507.734375 254.691406 495.113281 242.070312 480.726562 231.464844 L 639.886719 109.664062 L 640.011719 109.917969 " fill-opacity="1" fill-rule="nonzero"/><path fill="#ff9800" d="M 268.808594 518.484375 L 109.648438 640.285156 L 109.519531 640.03125 L 231.195312 480.996094 C 241.796875 495.261719 254.542969 507.886719 268.808594 518.484375 " fill-opacity="1" fill-rule="nonzero"/><path fill="#ff9800" d="M 640.011719 640.03125 L 639.886719 640.285156 L 480.726562 518.484375 C 495.113281 507.886719 507.734375 495.261719 518.339844 480.996094 L 640.011719 640.03125 " fill-opacity="1" fill-rule="nonzero"/><path fill="#ff9800" d="M 268.808594 231.464844 C 254.542969 242.070312 241.796875 254.691406 231.195312 268.953125 L 109.519531 109.917969 L 109.648438 109.664062 L 268.808594 231.464844 " fill-opacity="1" fill-rule="nonzero"/><path fill="#ff9800" d="M 489.308594 102.980469 L 458.640625 217.582031 C 449.171875 212.410156 439.199219 208.238281 428.722656 204.835938 L 489.058594 102.980469 L 489.308594 102.980469 " fill-opacity="1" fill-rule="nonzero"/><path fill="#ff9800" d="M 320.808594 545.113281 L 260.476562 646.976562 L 260.222656 646.976562 L 290.898438 532.371094 C 300.363281 537.417969 310.335938 541.707031 320.808594 545.113281 " fill-opacity="1" fill-rule="nonzero"/><path fill="#ff9800" d="M 646.828125 489.328125 L 646.703125 489.453125 L 532.222656 458.910156 C 537.398438 449.320312 541.5625 439.347656 544.972656 428.871094 L 646.828125 489.328125 " fill-opacity="1" fill-rule="nonzero"/><path fill="#ff9800" d="M 217.308594 291.039062 C 212.136719 300.640625 207.96875 310.601562 204.5625 321.078125 L 102.703125 260.621094 L 102.832031 260.5 L 217.308594 291.039062 " fill-opacity="1" fill-rule="nonzero"/><path fill="#ff9800" d="M 648.089844 263.652344 L 545.476562 322.972656 C 542.320312 312.503906 538.152344 302.398438 533.109375 292.808594 L 647.964844 263.402344 L 648.089844 263.652344 " fill-opacity="1" fill-rule="nonzero"/><path fill="#ff9800" d="M 216.425781 457.148438 L 101.570312 486.546875 L 101.441406 486.300781 L 204.054688 426.976562 C 207.210938 437.457031 211.378906 447.550781 216.425781 457.148438 " fill-opacity="1" fill-rule="nonzero"/><path fill="#ff9800" d="M 486.285156 648.109375 L 486.15625 648.230469 L 426.832031 545.621094 C 437.304688 542.464844 447.40625 538.300781 456.871094 533.25 L 486.285156 648.109375 " fill-opacity="1" fill-rule="nonzero"/><path fill="#ff9800" d="M 322.703125 204.328125 C 312.226562 207.484375 302.128906 211.648438 292.660156 216.699219 L 263.253906 101.710938 L 263.378906 101.710938 L 322.703125 204.328125 " fill-opacity="1" fill-rule="nonzero"/><path fill="#ff9800" d="M 523.644531 374.972656 C 523.644531 382.453125 523.117188 389.929688 522.058594 397.089844 C 520.796875 404.992188 519.109375 412.578125 516.792969 419.945312 C 513.949219 428.691406 510.476562 437.011719 506.15625 445.011719 C 502.78125 451.441406 498.886719 457.542969 494.574219 463.441406 C 485.722656 475.347656 475.191406 485.882812 463.183594 494.726562 C 456.96875 499.363281 450.332031 503.472656 443.28125 507.050781 C 435.375 511.261719 426.953125 514.734375 418.214844 517.367188 C 411.363281 519.480469 404.203125 521.058594 396.9375 522.214844 C 389.773438 523.269531 382.296875 523.792969 374.816406 523.792969 C 367.238281 523.792969 359.867188 523.269531 352.597656 522.214844 C 344.800781 520.953125 337.113281 519.15625 329.742188 516.949219 C 321 514.101562 312.679688 510.523438 304.78125 506.3125 C 298.355469 502.941406 292.140625 499.042969 286.351562 494.726562 C 274.445312 485.882812 263.808594 475.347656 254.964844 463.441406 C 250.332031 457.128906 246.222656 450.488281 242.640625 443.539062 C 238.429688 435.535156 234.949219 427.109375 232.320312 418.371094 C 230.210938 411.519531 228.632812 404.359375 227.476562 397.089844 C 226.421875 389.929688 225.894531 382.453125 225.894531 374.972656 C 225.894531 367.496094 226.421875 360.015625 227.476562 352.859375 C 228.738281 344.953125 230.425781 337.375 232.742188 330.003906 C 235.582031 321.257812 239.058594 312.941406 243.378906 304.9375 C 246.75 298.511719 250.644531 292.40625 254.964844 286.507812 C 263.808594 274.605469 274.445312 264.074219 286.351562 255.222656 C 292.5625 250.585938 299.199219 246.484375 306.253906 242.898438 C 314.152344 238.6875 322.578125 235.210938 331.324219 232.582031 C 338.273438 230.476562 345.328125 228.890625 352.597656 227.734375 C 359.867188 226.679688 367.238281 226.15625 374.816406 226.15625 C 382.296875 226.15625 389.773438 226.679688 396.9375 227.734375 C 404.730469 228.996094 412.421875 230.6875 419.792969 233 C 428.535156 235.847656 436.855469 239.320312 444.753906 243.640625 C 451.175781 247.007812 457.390625 250.910156 463.183594 255.222656 C 475.191406 264.074219 485.722656 274.605469 494.574219 286.507812 C 499.203125 292.824219 503.3125 299.460938 506.890625 306.410156 C 511.105469 314.414062 514.578125 322.84375 517.21875 331.578125 C 519.320312 338.433594 520.902344 345.589844 522.058594 352.859375 C 523.117188 360.015625 523.644531 367.496094 523.644531 374.972656 " fill-opacity="1" fill-rule="nonzero"/><g clip-path="url(#776c18a68e)"><g clip-path="url(#42fb370f5d)"><g transform="matrix(1, 0, 0, 1, 262, 262)"><g clip-path="url(#8a89678b33)"><g clip-path="url(#178cc541fe)"><g clip-path="url(#17df639d30)"><path fill="#ff9800" d="M 0.5 0.5 L 225.5 0.5 L 225.5 225.5 L 0.5 225.5 Z M 0.5 0.5 " fill-opacity="1" fill-rule="nonzero"/></g></g></g></g></g></g></svg>