<?xml version="1.0" encoding="UTF-8" standalone="no" ?>
<!DOCTYPE svg PUBLIC "-//W3C//DTD SVG 1.1//EN" "http://www.w3.org/Graphics/SVG/1.1/DTD/svg11.dtd">
<svg xmlns="http://www.w3.org/2000/svg" xmlns:xlink="http://www.w3.org/1999/xlink" version="1.1" width="1280" height="1024" viewBox="0 0 1280 1024" xml:space="preserve">
<desc>Created with Fabric.js 5.3.0</desc>
<defs>
</defs>
<g transform="matrix(1 0 0 1 640 512)" id="background-logo"  >
<rect style="stroke: none; stroke-width: 0; stroke-dasharray: none; stroke-linecap: butt; stroke-dashoffset: 0; stroke-linejoin: miter; stroke-miterlimit: 4; fill: rgb(255,255,255); fill-opacity: 0; fill-rule: nonzero; opacity: 1;"  paint-order="stroke"  x="-640" y="-512" rx="0" ry="0" width="1280" height="1024" />
</g>
<g transform="matrix(1.9211538461538462 0 0 1.9211538461538462 640 396.22309701279056)" id="logo-logo"  >
<g style=""  paint-order="stroke"   >
		<g transform="matrix(0.8377026030118752 0 0 0.8377026030118752 0 0)"  >
<g style=""  paint-order="stroke"   >
		<g transform="matrix(1 0 0 1 0 0)"  >
<linearGradient id="SVGID_564795" gradientUnits="userSpaceOnUse" gradientTransform="matrix(1 0 0 1 -0.00001000000000317414 0)"  x1="102.80499500000002" y1="0" x2="102.80499499999999" y2="249.13007">
<stop offset="38.000000000000014%" style="stop-color:rgb(255,213,0);stop-opacity: 1"/>
<stop offset="58.00000000000001%" style="stop-color:rgb(253,197,0);stop-opacity: 1"/>
</linearGradient>
<path style="stroke: none; stroke-width: 0; stroke-dasharray: none; stroke-linecap: butt; stroke-dashoffset: 0; stroke-linejoin: miter; stroke-miterlimit: 4; fill: url(#SVGID_564795); fill-rule: nonzero; opacity: 1;"  paint-order="stroke"  transform=" translate(-102.804985, -124.565035)" d="M 205.56 123.08002 L 204.29999 121.46002 C 188.42999 101.04999000000001 185.44 77.63006 195.17999 49.870050000000006 L 196.61999 45.75994000000001 L 196.64996 45.669970000000006 L 102.81 0 L 8.96002 45.66998 L 8.98999 45.75995 L 10.42999 49.87006 C 20.169980000000002 77.64008 17.19 101.06 1.3099900000000009 121.46002999999999 L 0.03997000000000095 123.08003 L -0.000009999999999052434 123.14008999999999 L 0.30999000000000093 125.24994999999998 C 0.9500000000000008 129.65009999999998 1.7999800000000008 134.01996999999997 2.830010000000001 138.23004999999998 C 6.979970000000002 153.66998999999998 13.859980000000002 169.41009999999997 21.71996 181.42999999999998 L 22.48998 182.62005999999997 C 23.799979999999998 184.57000999999997 25.05999 186.37005999999997 26.330009999999998 188.10003999999998 C 43.39001 211.29998999999998 68.34997 231.44000999999997 100.52001 247.95002 L 102.80999 249.13007 L 105.08996 247.95002 C 137.26 231.45002 162.21996000000001 211.31001 179.27996000000002 188.09002999999998 C 180.84997 185.96003 182.40996 183.72002999999998 183.89996000000002 181.44000999999997 C 191.75000000000003 169.41998999999998 198.63000000000002 153.67999999999998 202.78997 138.23004999999998 C 203.83996000000002 133.90008999999998 204.68999000000002 129.52997999999997 205.29998 125.24994999999998 L 205.60998 123.14008999999999 L 205.57 123.08003 L 205.55999 123.08003 Z M 187.44 133.57001 C 187.32 134.09002999999998 187.19 134.60004 187.06 135.12006 C 186.89997 135.76996 186.73999 136.41998999999998 186.56 137.06 C 186.46002000000001 137.44 186.35999 137.81 186.25 138.19 C 186.10999 138.70001 185.96997 139.21002 185.81 139.72003 C 178.02002 162.90008 161.64002 184.71002000000001 161.64002 184.71002000000001 C 161.19001 185.25995 160.73999999999998 185.79999 160.27002 186.34002 C 157.28997999999999 189.86004 154.08997 193.29998 150.66997999999998 196.65008 C 150.10997999999998 197.21002000000001 149.53997999999999 197.75994 148.96997 198.29998 L 148.83002 198.43999 C 148.23998999999998 198.98991999999998 147.65998 199.53996999999998 147.06 200.09001 C 145.83002 201.23002 144.58002 202.35002 143.31 203.47001 C 142.02997 204.59001 140.72998 205.68998 139.39997 206.77995 C 137.40998 208.41996 135.35998999999998 210.03996 133.26002 211.64006 C 132.56001 212.16997 131.84999 212.70000000000002 131.14002 213.23003 C 129.72999 214.26995 128.29998999999998 215.29998 126.84997999999999 216.32 C 126.72997999999998 216.40008 126.60998999999998 216.48991999999998 126.48998999999999 216.57 C 125.15996999999999 217.49993 123.80999999999999 218.41997999999998 122.45000999999999 219.33001 C 119.33995999999999 221.39006999999998 116.14000999999999 223.41009 112.83995999999999 225.38006 C 112.02995999999999 225.87005 111.21001999999999 226.35002999999998 110.39000999999999 226.83001 C 109.55998999999998 227.30999 108.72997999999998 227.78996999999998 107.89996 228.25994 C 107.05999 228.73992 106.21996999999999 229.21001 105.36998999999999 229.67998 C 104.52000999999998 230.15007 103.66997999999998 230.62004 102.80998999999998 231.08 C 101.94999999999999 230.62004000000002 101.09996999999998 230.15007 100.24998999999998 229.67998 C 99.39994999999998 229.21001 98.55998999999998 228.73992 97.71995999999999 228.25994 C 96.88999999999999 227.78997 96.05998999999998 227.30999 95.22996999999998 226.83001 C 94.40995999999998 226.35002999999998 93.58995999999998 225.87005 92.77995999999997 225.38006 C 91.99998999999997 224.91997999999998 91.23997999999997 224.46002 90.47996999999998 223.98991999999998 C 88.69999999999997 222.90007999999997 86.94999999999997 221.79997999999998 85.22996999999998 220.67997999999997 C 83.04997999999998 219.26994999999997 80.90995999999998 217.82999999999998 78.83000999999999 216.36002999999997 C 78.08995999999999 215.84000999999998 77.35998 215.32999999999996 76.62999999999998 214.79996999999997 C 75.90996999999999 214.27994999999999 75.18999999999998 213.75992999999997 74.46996999999998 213.23001999999997 C 73.76000999999998 212.69998999999996 73.04998999999998 212.16995999999997 72.34996999999997 211.64004999999997 C 70.95000999999996 210.56998 69.56999999999996 209.49990999999997 68.21996999999998 208.41006999999996 C 67.53997999999997 207.87002999999996 66.86998999999997 207.32998999999995 66.21001999999997 206.77993999999995 C 65.54998999999997 206.23000999999996 64.89000999999998 205.67995999999997 64.23998999999998 205.13003999999995 L 64.14995999999998 205.05996999999996 C 62.87999999999998 203.98000999999996 61.62999999999998 202.89004999999997 60.40996999999998 201.77993999999995 C 59.77996999999998 201.23000999999996 59.15996999999998 200.66006999999996 58.54997999999998 200.08999999999995 C 57.81999999999998 199.41995999999995 57.10997999999998 198.74990999999994 56.39995999999998 198.05996999999994 C 55.90996999999998 197.60000999999994 55.41997999999998 197.13003999999992 54.939999999999976 196.65005999999994 C 51.52996999999998 193.29995999999994 48.31999999999998 189.86001999999993 45.34996999999998 186.33999999999995 C 44.890009999999975 185.79995999999994 44.429989999999975 185.25991999999994 43.97996999999998 184.70999999999995 C 43.97996999999998 184.70999999999995 27.59996999999998 162.90005999999994 19.80998999999998 139.72000999999995 L 19.710009999999983 139.44998999999996 C 19.210009999999983 137.70999999999995 18.73997999999998 135.94998999999996 18.30998999999998 134.17996999999997 C 18.18998999999998 133.67996999999997 18.069999999999983 133.17996999999997 17.960009999999983 132.66995999999997 C 17.80998999999998 132.03995999999998 17.66996999999998 131.41006999999996 17.539969999999983 130.76993999999996 C 17.409969999999984 130.19998999999996 17.299979999999984 129.62003999999996 17.189989999999984 129.04996999999997 C 17.069989999999983 128.48001999999997 16.960009999999983 127.91007999999998 16.859969999999983 127.32999999999997 C 24.960009999999983 115.73990999999997 29.80997999999998 103.22000999999997 31.409959999999984 89.81998999999996 C 32.74998999999998 78.48001999999997 31.759999999999984 66.50992999999997 28.429979999999983 53.98001999999996 L 102.81 17.79004 L 177.18 53.98004 C 173.84998000000002 66.50995 172.85999 78.48004 174.20002 89.82001 C 175.79999999999998 103.22003 180.64997 115.73993 188.75001 127.33001999999999 C 188.37001 129.42999999999998 187.93 131.50995 187.44001 133.57001 Z" stroke-linecap="round" />
</g>
</g>
</g>
		<g transform="matrix(0.7948479726170441 0 0 0.7948479726170441 0 5.338188535044196)"  >
<g style=""  paint-order="stroke"   >
		<g transform="matrix(1 0 0 1 0 0)"  >
<path style="stroke: none; stroke-width: 0; stroke-dasharray: none; stroke-linecap: butt; stroke-dashoffset: 0; stroke-linejoin: miter; stroke-miterlimit: 4; fill: rgb(0,80,157); fill-rule: nonzero; opacity: 1;"  paint-order="stroke"  transform=" translate(-102.804985, -124.565035)" d="M 205.56 123.08002 L 204.29999 121.46002 C 188.42999 101.04999000000001 185.44 77.63006 195.17999 49.870050000000006 L 196.61999 45.75994000000001 L 196.64996 45.669970000000006 L 102.81 0 L 8.96002 45.66998 L 8.98999 45.75995 L 10.42999 49.87006 C 20.169980000000002 77.64008 17.19 101.06 1.3099900000000009 121.46002999999999 L 0.03997000000000095 123.08003 L -0.000009999999999052434 123.14008999999999 L 0.30999000000000093 125.24994999999998 C 0.9500000000000008 129.65009999999998 1.7999800000000008 134.01996999999997 2.830010000000001 138.23004999999998 C 6.979970000000002 153.66998999999998 13.859980000000002 169.41009999999997 21.71996 181.42999999999998 L 22.48998 182.62005999999997 C 23.799979999999998 184.57000999999997 25.05999 186.37005999999997 26.330009999999998 188.10003999999998 C 43.39001 211.29998999999998 68.34997 231.44000999999997 100.52001 247.95002 L 102.80999 249.13007 L 105.08996 247.95002 C 137.26 231.45002 162.21996000000001 211.31001 179.27996000000002 188.09002999999998 C 180.84997 185.96003 182.40996 183.72002999999998 183.89996000000002 181.44000999999997 C 191.75000000000003 169.41998999999998 198.63000000000002 153.67999999999998 202.78997 138.23004999999998 C 203.83996000000002 133.90008999999998 204.68999000000002 129.52997999999997 205.29998 125.24994999999998 L 205.60998 123.14008999999999 L 205.57 123.08003 L 205.55999 123.08003 Z M 187.44 133.57001 C 187.32 134.09002999999998 187.19 134.60004 187.06 135.12006 C 186.89997 135.76996 186.73999 136.41998999999998 186.56 137.06 C 186.46002000000001 137.44 186.35999 137.81 186.25 138.19 C 186.10999 138.70001 185.96997 139.21002 185.81 139.72003 C 178.02002 162.90008 161.64002 184.71002000000001 161.64002 184.71002000000001 C 161.19001 185.25995 160.73999999999998 185.79999 160.27002 186.34002 C 157.28997999999999 189.86004 154.08997 193.29998 150.66997999999998 196.65008 C 150.10997999999998 197.21002000000001 149.53997999999999 197.75994 148.96997 198.29998 L 148.83002 198.43999 C 148.23998999999998 198.98991999999998 147.65998 199.53996999999998 147.06 200.09001 C 145.83002 201.23002 144.58002 202.35002 143.31 203.47001 C 142.02997 204.59001 140.72998 205.68998 139.39997 206.77995 C 137.40998 208.41996 135.35998999999998 210.03996 133.26002 211.64006 C 132.56001 212.16997 131.84999 212.70000000000002 131.14002 213.23003 C 129.72999 214.26995 128.29998999999998 215.29998 126.84997999999999 216.32 C 126.72997999999998 216.40008 126.60998999999998 216.48991999999998 126.48998999999999 216.57 C 125.15996999999999 217.49993 123.80999999999999 218.41997999999998 122.45000999999999 219.33001 C 119.33995999999999 221.39006999999998 116.14000999999999 223.41009 112.83995999999999 225.38006 C 112.02995999999999 225.87005 111.21001999999999 226.35002999999998 110.39000999999999 226.83001 C 109.55998999999998 227.30999 108.72997999999998 227.78996999999998 107.89996 228.25994 C 107.05999 228.73992 106.21996999999999 229.21001 105.36998999999999 229.67998 C 104.52000999999998 230.15007 103.66997999999998 230.62004 102.80998999999998 231.08 C 101.94999999999999 230.62004000000002 101.09996999999998 230.15007 100.24998999999998 229.67998 C 99.39994999999998 229.21001 98.55998999999998 228.73992 97.71995999999999 228.25994 C 96.88999999999999 227.78997 96.05998999999998 227.30999 95.22996999999998 226.83001 C 94.40995999999998 226.35002999999998 93.58995999999998 225.87005 92.77995999999997 225.38006 C 91.99998999999997 224.91997999999998 91.23997999999997 224.46002 90.47996999999998 223.98991999999998 C 88.69999999999997 222.90007999999997 86.94999999999997 221.79997999999998 85.22996999999998 220.67997999999997 C 83.04997999999998 219.26994999999997 80.90995999999998 217.82999999999998 78.83000999999999 216.36002999999997 C 78.08995999999999 215.84000999999998 77.35998 215.32999999999996 76.62999999999998 214.79996999999997 C 75.90996999999999 214.27994999999999 75.18999999999998 213.75992999999997 74.46996999999998 213.23001999999997 C 73.76000999999998 212.69998999999996 73.04998999999998 212.16995999999997 72.34996999999997 211.64004999999997 C 70.95000999999996 210.56998 69.56999999999996 209.49990999999997 68.21996999999998 208.41006999999996 C 67.53997999999997 207.87002999999996 66.86998999999997 207.32998999999995 66.21001999999997 206.77993999999995 C 65.54998999999997 206.23000999999996 64.89000999999998 205.67995999999997 64.23998999999998 205.13003999999995 L 64.14995999999998 205.05996999999996 C 62.87999999999998 203.98000999999996 61.62999999999998 202.89004999999997 60.40996999999998 201.77993999999995 C 59.77996999999998 201.23000999999996 59.15996999999998 200.66006999999996 58.54997999999998 200.08999999999995 C 57.81999999999998 199.41995999999995 57.10997999999998 198.74990999999994 56.39995999999998 198.05996999999994 C 55.90996999999998 197.60000999999994 55.41997999999998 197.13003999999992 54.939999999999976 196.65005999999994 C 51.52996999999998 193.29995999999994 48.31999999999998 189.86001999999993 45.34996999999998 186.33999999999995 C 44.890009999999975 185.79995999999994 44.429989999999975 185.25991999999994 43.97996999999998 184.70999999999995 C 43.97996999999998 184.70999999999995 27.59996999999998 162.90005999999994 19.80998999999998 139.72000999999995 L 19.710009999999983 139.44998999999996 C 19.210009999999983 137.70999999999995 18.73997999999998 135.94998999999996 18.30998999999998 134.17996999999997 C 18.18998999999998 133.67996999999997 18.069999999999983 133.17996999999997 17.960009999999983 132.66995999999997 C 17.80998999999998 132.03995999999998 17.66996999999998 131.41006999999996 17.539969999999983 130.76993999999996 C 17.409969999999984 130.19998999999996 17.299979999999984 129.62003999999996 17.189989999999984 129.04996999999997 C 17.069989999999983 128.48001999999997 16.960009999999983 127.91007999999998 16.859969999999983 127.32999999999997 C 24.960009999999983 115.73990999999997 29.80997999999998 103.22000999999997 31.409959999999984 89.81998999999996 C 32.74998999999998 78.48001999999997 31.759999999999984 66.50992999999997 28.429979999999983 53.98001999999996 L 102.81 17.79004 L 177.18 53.98004 C 173.84998000000002 66.50995 172.85999 78.48004 174.20002 89.82001 C 175.79999999999998 103.22003 180.64997 115.73993 188.75001 127.33001999999999 C 188.37001 129.42999999999998 187.93 131.50995 187.44001 133.57001 Z" stroke-linecap="round" />
</g>
</g>
</g>
</g>
</g>
<g transform="matrix(1.9211538461538462 0 0 1.9211538461538462 642.9566557692308 686.6378888661889)" id="text-logo"  >
<g style=""  paint-order="stroke"   >
		<g transform="matrix(1 0 0 1 0 0)" id="text-logo-path-0"  >
<path style="stroke: none; stroke-width: 0; stroke-dasharray: none; stroke-linecap: butt; stroke-dashoffset: 0; stroke-linejoin: miter; stroke-miterlimit: 4; fill: rgb(253,197,0); fill-rule: nonzero; opacity: 1;"  paint-order="stroke"  transform=" translate(-146.93500000000003, 18.9)" d="M 20.03 -37.8 L 3.46 -37.8 L 3.46 0 L 12.1 0 L 12.1 -13.82 L 16.09 -13.82 L 23.38 0 L 32.56 0 L 24.89 -14.58 C 29.59 -16.15 32.56 -20.2 32.56 -25.81 C 32.56 -33.16 27.43 -37.8 20.03 -37.8 Z M 23.92 -25.81 C 23.92 -23.33 22.25 -21.92 19.93 -21.92 L 12.1 -21.92 L 12.1 -29.7 L 19.93 -29.7 C 22.25 -29.7 23.92 -28.24 23.92 -25.81 Z M 67.99 -37.8 L 40.82 -37.8 L 40.82 0 L 67.99 0 L 67.99 -8.1 L 49.46 -8.1 L 49.46 -15.66 L 64.75 -15.66 L 64.75 -23.76 L 49.46 -23.76 L 49.46 -29.7 L 67.99 -29.7 Z M 84.51 -27.97 C 84.51 -29.59 86.72 -30.56 88.83 -30.56 C 91.96 -30.56 95.47 -28.24 97.58 -25.7 L 103.79 -31.27 C 99.68 -36.34 95.2 -38.66 89.53 -38.66 C 81.65 -38.66 75.65 -34.13 75.65 -28.24 C 75.65 -17.12 96.55 -15.17 96.55 -10.26 C 96.55 -8.64 94.5 -7.24 91.64 -7.24 C 87.26 -7.18 82.35 -10.37 79.65 -13.01 L 74.57 -6.32 C 78.89 -1.84 85 0.86 91.26 0.86 C 96.98 0.86 105.35 -2.97 105.35 -10.37 C 105.35 -21.98 84.51 -23.27 84.51 -27.97 Z M 121.93 -37.8 L 113.29 -37.8 L 113.29 0 L 121.93 0 Z M 140.29 -37.8 L 131.65 -37.8 L 131.65 0 L 158.81 0 L 158.81 -8.1 L 140.29 -8.1 Z M 174.37 -37.8 L 165.73 -37.8 L 165.73 0 L 174.37 0 Z M 211.25 -37.8 L 184.09 -37.8 L 184.09 0 L 211.25 0 L 211.25 -8.1 L 192.73 -8.1 L 192.73 -15.66 L 208.01 -15.66 L 208.01 -23.76 L 192.73 -23.76 L 192.73 -29.7 L 211.25 -29.7 Z M 228.96 -37.8 L 219.78 -37.8 L 219.78 0 L 228.42 0 L 228.42 -23.27 L 243 0 L 252.18 0 L 252.18 -37.8 L 243.54 -37.8 L 243.54 -14.53 Z M 279.07 -29.7 L 290.41 -29.7 L 290.41 -37.8 L 259.09 -37.8 L 259.09 -29.7 L 270.43 -29.7 L 270.43 0 L 279.07 0 Z" stroke-linecap="round" />
</g>
</g>
</g>
<g transform="matrix(1.9211538461538462 0 0 1.9211538461538462 643.2678826923077 397.79811375607744)" id="tagline-30eebf5a-f46b-4fe8-ae3f-0b654038eead-logo"  >
<g style=""  paint-order="stroke"   >
		<g transform="matrix(1 0 0 1 0 0)" id="tagline-30eebf5a-f46b-4fe8-ae3f-0b654038eead-logo-path-0"  >
<linearGradient id="SVGID_564796" gradientUnits="userSpaceOnUse" gradientTransform="matrix(1 0 0 1 8.060000000000002 -88.2)"  x1="32.25599999999994" y1="-22.571640000000002" x2="32.25599999999996" y2="119.80836">
<stop offset="38.000000000000014%" style="stop-color:rgb(255,213,0);stop-opacity: 1"/>
<stop offset="58.00000000000001%" style="stop-color:rgb(253,197,0);stop-opacity: 1"/>
</linearGradient>
<path style="stroke: rgb(2,12,34); stroke-width: 16.642316601125216; stroke-dasharray: none; stroke-linecap: butt; stroke-dashoffset: 0; stroke-linejoin: miter; stroke-miterlimit: 4; fill: url(#SVGID_564796); fill-rule: nonzero; opacity: 1;"  paint-order="stroke"  transform=" translate(-42.02, 44.1)" d="M 46.75 -88.2 L 8.06 -88.2 L 8.06 0 L 28.22 0 L 28.22 -32.26 L 37.55 -32.26 L 54.56 0 L 75.98 0 L 58.09 -34.02 C 69.05 -37.67 75.98 -47.12 75.98 -60.23 C 75.98 -77.36 64.01 -88.2 46.75 -88.2 Z M 55.82 -60.23 C 55.82 -54.43 51.91 -51.16 46.49 -51.16 L 28.22 -51.16 L 28.22 -69.3 L 46.49 -69.3 C 51.91 -69.3 55.82 -65.9 55.82 -60.23 Z" stroke-linecap="round" />
</g>
</g>
</g>
<g transform="matrix(1.9211538461538462 0 0 1.9211538461538462 640.1210326923076 776.2206125962157)" id="tagline-13e2e673-c144-4a67-81df-73b567b1e866-logo"  >
<g style=""  paint-order="stroke"   >
		<g transform="matrix(1 0 0 1 0 0)" id="tagline-13e2e673-c144-4a67-81df-73b567b1e866-logo-path-0"  >
<path style="stroke: none; stroke-width: 0; stroke-dasharray: none; stroke-linecap: butt; stroke-dashoffset: 0; stroke-linejoin: miter; stroke-miterlimit: 4; fill: rgb(255,213,0); fill-rule: nonzero; opacity: 1;"  paint-order="stroke"  transform=" translate(-160.20000000000002, 9.38)" d="M 9.66 0 L 14.5 -15.34 L 19.35 0 L 21.7 0 L 27.64 -18.76 L 25.28 -18.76 L 20.52 -3.72 L 15.79 -18.76 L 13.24 -18.76 L 8.48 -3.72 L 3.75 -18.76 L 1.4 -18.76 L 7.31 0 Z M 38.36 0 L 51.8 0 L 51.8 -1.96 L 40.6 -1.96 L 40.6 -8.4 L 50.12 -8.4 L 50.12 -10.36 L 40.6 -10.36 L 40.6 -16.8 L 51.8 -16.8 L 51.8 -18.76 L 38.36 -18.76 Z M 72.04 0 C 75.49 0 78.06 -2.32 78.06 -5.38 C 78.06 -7.73 76.58 -9.16 74.23 -9.63 C 76.08 -10.3 77.22 -11.7 77.22 -13.75 C 77.22 -16.55 75.04 -18.65 71.76 -18.76 L 62.52 -18.76 L 62.52 0 Z M 71.9 -1.96 L 64.76 -1.96 L 64.76 -8.93 L 72.18 -8.93 C 74.45 -8.93 75.96 -7.53 75.96 -5.38 C 75.96 -3.28 74.45 -1.96 71.9 -1.96 Z M 71.99 -10.61 L 64.76 -10.61 L 64.76 -16.8 L 71.34 -16.8 C 73.7 -16.8 75.12 -15.76 75.12 -13.75 C 75.12 -11.84 73.95 -10.78 71.99 -10.61 Z M 104.44 -5.82 L 102.31 -5.04 C 103.63 -1.48 106.18 0.28 109.98 0.28 C 114.04 0.28 116.9 -2.04 116.9 -5.18 C 116.9 -7.42 115.5 -8.74 113.79 -9.35 C 112.9 -9.69 111.78 -10 110.35 -10.33 C 107.91 -10.89 106.76 -11.26 105.87 -12.12 C 105.39 -12.57 105.17 -13.13 105.17 -13.83 C 105.17 -15.76 107.1 -17.08 109.56 -17.08 C 112.11 -17.08 113.46 -16.04 114.55 -13.3 L 116.62 -14.14 C 115.3 -17.44 113.04 -19.04 109.56 -19.04 C 105.87 -19.04 102.93 -16.86 102.93 -13.83 C 102.93 -11.45 104.44 -10.05 106.2 -9.38 C 107.13 -9.02 108.28 -8.68 109.76 -8.32 C 112.03 -7.76 113.15 -7.48 114.02 -6.69 C 114.44 -6.3 114.66 -5.8 114.66 -5.18 C 114.66 -3.08 112.87 -1.68 109.98 -1.68 C 106.93 -1.68 105.42 -3.08 104.44 -5.82 Z M 137.37 0.31 C 140.95 0.31 144.12 -1.6 145.82 -4.56 C 146.69 -6.05 147.11 -7.64 147.11 -9.38 C 147.11 -12.85 145.26 -15.99 142.27 -17.75 C 140.78 -18.62 139.13 -19.07 137.37 -19.07 C 133.78 -19.07 130.62 -17.19 128.91 -14.22 C 128.04 -12.74 127.62 -11.12 127.62 -9.38 C 127.62 -5.91 129.47 -2.77 132.47 -1.01 C 133.95 -0.14 135.6 0.31 137.37 0.31 Z M 137.37 -1.82 C 134.65 -1.82 132.22 -3.25 130.87 -5.57 C 130.2 -6.72 129.86 -8.01 129.86 -9.38 C 129.86 -12.15 131.29 -14.59 133.62 -15.96 C 134.76 -16.63 136.02 -16.97 137.37 -16.97 C 140.08 -16.97 142.52 -15.51 143.86 -13.19 C 144.54 -12.04 144.87 -10.75 144.87 -9.38 C 144.87 -6.61 143.44 -4.17 141.12 -2.83 C 139.97 -2.16 138.71 -1.82 137.37 -1.82 Z M 157.84 0 L 171.28 0 L 171.28 -1.96 L 160.08 -1.96 L 160.08 -18.76 L 157.84 -18.76 Z M 195.44 -18.76 L 195.44 -7.62 C 195.44 -4.2 192.89 -1.82 189.87 -1.82 C 186.62 -1.82 184.24 -4.28 184.24 -7.62 L 184.24 -18.76 L 182 -18.76 L 182 -7.62 C 182 -4.73 183.54 -2.21 185.95 -0.78 C 187.15 -0.08 188.44 0.28 189.87 0.28 C 192.67 0.28 195.24 -1.26 196.64 -3.67 C 197.34 -4.87 197.68 -6.19 197.68 -7.62 L 197.68 -18.76 Z M 217.36 0 L 217.36 -16.8 L 224.08 -16.8 L 224.08 -18.76 L 208.4 -18.76 L 208.4 -16.8 L 215.12 -16.8 L 215.12 0 Z M 237.05 0 L 237.05 -18.76 L 234.81 -18.76 L 234.81 0 Z M 257.52 0.31 C 261.1 0.31 264.26 -1.6 265.97 -4.56 C 266.84 -6.05 267.26 -7.64 267.26 -9.38 C 267.26 -12.85 265.41 -15.99 262.42 -17.75 C 260.93 -18.62 259.28 -19.07 257.52 -19.07 C 253.93 -19.07 250.77 -17.19 249.06 -14.22 C 248.19 -12.74 247.77 -11.12 247.77 -9.38 C 247.77 -5.91 249.62 -2.77 252.62 -1.01 C 254.1 -0.14 255.75 0.31 257.52 0.31 Z M 257.52 -1.82 C 254.8 -1.82 252.36 -3.25 251.02 -5.57 C 250.35 -6.72 250.01 -8.01 250.01 -9.38 C 250.01 -12.15 251.44 -14.59 253.76 -15.96 C 254.91 -16.63 256.17 -16.97 257.52 -16.97 C 260.23 -16.97 262.67 -15.51 264.01 -13.19 C 264.68 -12.04 265.02 -10.75 265.02 -9.38 C 265.02 -6.61 263.59 -4.17 261.27 -2.83 C 260.12 -2.16 258.86 -1.82 257.52 -1.82 Z M 280.25 0 L 280.25 -15.57 L 291.28 0 L 293.69 0 L 293.69 -18.76 L 291.45 -18.76 L 291.45 -3.16 L 280.39 -18.76 L 277.98 -18.76 L 278.01 -18.73 L 278.01 0 Z M 306.54 -5.82 L 304.42 -5.04 C 305.73 -1.48 308.28 0.28 312.09 0.28 C 316.15 0.28 319 -2.04 319 -5.18 C 319 -7.42 317.6 -8.74 315.9 -9.35 C 315 -9.69 313.88 -10 312.45 -10.33 C 310.02 -10.89 308.87 -11.26 307.97 -12.12 C 307.5 -12.57 307.27 -13.13 307.27 -13.83 C 307.27 -15.76 309.2 -17.08 311.67 -17.08 C 314.22 -17.08 315.56 -16.04 316.65 -13.3 L 318.72 -14.14 C 317.41 -17.44 315.14 -19.04 311.67 -19.04 C 307.97 -19.04 305.03 -16.86 305.03 -13.83 C 305.03 -11.45 306.54 -10.05 308.31 -9.38 C 309.23 -9.02 310.38 -8.68 311.86 -8.32 C 314.13 -7.76 315.25 -7.48 316.12 -6.69 C 316.54 -6.3 316.76 -5.8 316.76 -5.18 C 316.76 -3.08 314.97 -1.68 312.09 -1.68 C 309.04 -1.68 307.52 -3.08 306.54 -5.82 Z" stroke-linecap="round" />
</g>
</g>
</g>
</svg>